<svg id="Camada_1" data-name="Camada 1" xmlns="http://www.w3.org/2000/svg" viewBox="0 0 268.3 84.35"><title>un</title><path d="M805.7,503.57h14.37v61.91H806V559.3q-1.51,6.18-9,6.18h-3.91q-12.86,0-12.86-12.48V503.57h14.25V551a3.67,3.67,0,0,0,.75,2.71,4.14,4.14,0,0,0,2.78.7h3.78c2.6,0,3.91-1.39,3.91-4.16Z" transform="translate(-780.23 -481.13)"/><path d="M853.86,503.57h3.78q13,0,13,12.49v49.42H856.26V518.07a3.7,3.7,0,0,0-.76-2.71,4.17,4.17,0,0,0-2.77-.69h-3.79c-2.6,0-3.91,1.39-3.91,4.16v46.65H830.79V503.57h14.12v5.68Q846.67,503.58,853.86,503.57Z" transform="translate(-780.23 -481.13)"/><path d="M895.34,565.48H881.09V481.13h14.25Z" transform="translate(-780.23 -481.13)"/><path d="M919,503.57h14.25q13.37,0,13.36,12.49V553q0,12.48-13.36,12.48H919q-13.49,0-13.49-12.48V516.06Q905.55,503.58,919,503.57Zm13.62,47.79V517.7a3.62,3.62,0,0,0-.76-2.71,4.36,4.36,0,0,0-2.9-.7h-5.8a4.37,4.37,0,0,0-2.9.7,3.67,3.67,0,0,0-.75,2.71v33.66a3.67,3.67,0,0,0,.75,2.71,4.44,4.44,0,0,0,2.9.69H929a4.42,4.42,0,0,0,2.9-.69A3.62,3.62,0,0,0,932.66,551.36Z" transform="translate(-780.23 -481.13)"/><path d="M995.82,524.38h-14v-6.31a3.66,3.66,0,0,0-.76-2.71,4.17,4.17,0,0,0-2.77-.69h-4.54a4.15,4.15,0,0,0-2.77.69,3.66,3.66,0,0,0-.76,2.71V551a3.62,3.62,0,0,0,.76,2.71,4.09,4.09,0,0,0,2.77.7h4.54a4.11,4.11,0,0,0,2.77-.7,3.62,3.62,0,0,0,.76-2.71v-6.43h14V553q0,12.48-13.74,12.48H969.72Q956,565.48,956,553V516.06q0-12.48,13.74-12.49h12.36q13.74,0,13.74,12.49Z" transform="translate(-780.23 -481.13)"/><path d="M1004.77,565.48V481.13H1019v84.35Zm43.76-61.91-13.87,29.76,13.87,32.15h-15l-13.36-32.15,13.49-29.76Z" transform="translate(-780.23 -481.13)"/></svg>