<svg id="Camada_1" data-name="Camada 1" xmlns="http://www.w3.org/2000/svg" viewBox="0 0 126.26 155.65"><title>unlock@logo</title><path d="M511.92,591.16c-26.43,0-47.92,22.05-47.92,49.15s21.49,49.15,47.92,49.15,47.92-22.05,47.92-49.15S538.35,591.16,511.92,591.16Zm0,93.74c-23.91,0-43.36-20-43.36-44.59s19.45-44.58,43.36-44.58,43.36,20,43.36,44.58S535.83,684.9,511.92,684.9Z" transform="translate(-448.79 -577)"/><path d="M555.86,595.24a62,62,0,0,0-87.74-.14l-.14.14a66,66,0,0,0-19.06,42.23,62.22,62.22,0,0,0,3.75,25.61,67.18,67.18,0,0,0,14.39,22.84l43.2,46a2.28,2.28,0,0,0,3.22.1l.1-.1,43.19-46a67.06,67.06,0,0,0,14.4-22.84,62.22,62.22,0,0,0,3.75-25.61A66,66,0,0,0,555.86,595.24Zm11,66.28a62.47,62.47,0,0,1-13.43,21.28L511.92,727,470.39,682.8A62.47,62.47,0,0,1,457,661.52a57.86,57.86,0,0,1-3.49-23.75,61.44,61.44,0,0,1,17.75-39.31,57.46,57.46,0,0,1,81.28-.12l.12.12a61.44,61.44,0,0,1,17.75,39.31A57.86,57.86,0,0,1,566.88,661.52Z" transform="translate(-448.79 -577)"/><path d="M530.08,634.61a.15.15,0,0,0,0-.07v-6c0-9.67-7.81-17-18.17-17-5.79,0-10.33,2.46-14.29,7.75a1.21,1.21,0,1,0,1.93,1.46c3.52-4.69,7.33-6.79,12.36-6.79,9.12,0,15.74,6.12,15.74,14.54v3.1a21.78,21.78,0,1,0,2.42,3ZM511.92,666a19.38,19.38,0,1,1,19.38-19.39A19.41,19.41,0,0,1,511.92,666Z" transform="translate(-448.79 -577)"/><path d="M511.92,637a6,6,0,0,0-3.63,10.88v4.87a3.63,3.63,0,0,0,7.26,0v-4.87A6,6,0,0,0,511.92,637Zm1.81,9.19a1.2,1.2,0,0,0-.6,1v5.52a1.21,1.21,0,1,1-2.42,0v-5.52a1.21,1.21,0,0,0-.6-1,3.63,3.63,0,1,1,3.62,0Z" transform="translate(-448.79 -577)"/></svg>