<svg id="Camada_1" data-name="Camada 1" xmlns="http://www.w3.org/2000/svg" viewBox="0 0 383 91.61"><title>unlock@brand</title><path d="M573.92,514.94q-6.3,7.65-17.42,7.65-10.25,0-15.64-5.89t-5.5-17.25V457.71h17v41.2q0,10,9.07,10,8.65,0,11.89-6V457.71h17.08v63.7h-16Z" transform="translate(-535.36 -430.98)"/><path d="M618.91,457.71l.53,7.36q6.82-8.54,18.31-8.54,10.13,0,15.07,6t5.06,17.78v41.15h-17V480.67q0-5.42-2.36-7.86t-7.83-2.44a11.69,11.69,0,0,0-10.77,6.12v44.92h-17v-63.7Z" transform="translate(-535.36 -430.98)"/><path d="M688.73,521.41H671.66V431h17.07Z" transform="translate(-535.36 -430.98)"/><path d="M700.1,489a37.72,37.72,0,0,1,3.65-16.9,26.76,26.76,0,0,1,10.51-11.48,30.64,30.64,0,0,1,15.93-4.06q12.88,0,21,7.89t9.1,21.43l.12,4.36q0,14.66-8.19,23.52t-22,8.86q-13.77,0-22-8.83t-8.21-24Zm17,1.21q0,9.07,3.42,13.89a12.28,12.28,0,0,0,19.43.06q3.46-4.75,3.47-15.19,0-8.9-3.47-13.8a11.31,11.31,0,0,0-9.77-4.89,11.11,11.11,0,0,0-9.66,4.86Q717.11,480,717.11,490.18Z" transform="translate(-535.36 -430.98)"/><path d="M797.42,508.87a11.16,11.16,0,0,0,7.66-2.59,9.07,9.07,0,0,0,3.06-6.89h16a21.82,21.82,0,0,1-3.54,11.87,23.23,23.23,0,0,1-9.51,8.36,29.77,29.77,0,0,1-13.33,3q-13.66,0-21.55-8.68t-7.89-24V488.8q0-14.73,7.83-23.5t21.49-8.77q12,0,19.17,6.8t7.33,18.11h-16a11.7,11.7,0,0,0-3.06-8.08,10.22,10.22,0,0,0-7.77-3.11q-6,0-9,4.33t-3,14.07v1.77q0,9.84,3,14.15T797.42,508.87Z" transform="translate(-535.36 -430.98)"/><path d="M857,495.86,850.83,502v19.43h-17V431h17v50.1l3.29-4.24,16.31-19.13h20.43l-23,26.55,25,37.15H873.32Z" transform="translate(-535.36 -430.98)"/><path d="M899.11,513.05a8.58,8.58,0,0,1,2.73-6.59,10.65,10.65,0,0,1,13.78,0,8.56,8.56,0,0,1,2.74,6.59,8.45,8.45,0,0,1-2.71,6.51,10.83,10.83,0,0,1-13.84,0A8.47,8.47,0,0,1,899.11,513.05Z" transform="translate(-535.36 -430.98)"/></svg>