<svg id="Camada_1" data-name="Camada 1" xmlns="http://www.w3.org/2000/svg" viewBox="0 0 138.58 170.84"><title>unlock@logo</title><path d="M504.11,614.55c-29,0-52.6,24.2-52.6,53.94s23.59,54,52.6,54,52.6-24.2,52.6-54S533.11,614.55,504.11,614.55Zm0,102.88c-26.24,0-47.59-22-47.59-48.94s21.35-48.93,47.59-48.93,47.59,22,47.59,48.93S530.35,717.43,504.11,717.43Z" transform="translate(-434.81 -599)"/><path d="M552.33,619a68.1,68.1,0,0,0-96.3-.15l-.15.15A72.5,72.5,0,0,0,435,665.37a68.36,68.36,0,0,0,4.13,28.12,73.66,73.66,0,0,0,15.79,25.06l47.41,50.5a2.5,2.5,0,0,0,3.54.11,1.14,1.14,0,0,0,.11-.11l47.41-50.5a73.51,73.51,0,0,0,15.79-25.06,68.19,68.19,0,0,0,4.13-28.12A72.45,72.45,0,0,0,552.33,619Zm12.1,72.75a68.54,68.54,0,0,1-14.74,23.35l-45.58,48.55-45.58-48.55a68.64,68.64,0,0,1-14.74-23.35A63.28,63.28,0,0,1,440,665.7a67.46,67.46,0,0,1,19.48-43.14,63.08,63.08,0,0,1,89.22-.14l.13.14a67.46,67.46,0,0,1,19.48,43.14A63.28,63.28,0,0,1,564.43,691.77Z" transform="translate(-434.81 -599)"/><path d="M522.86,661.7h-4.19v-8.5c.09-11.44-12.94-19.92-25-11.14a2.44,2.44,0,0,0-.6.6q-4.12,5.82-3.64,11.65a.48.48,0,0,0,.13.29c2.18,2.23,4.83.72,4.83-1.4-.1-7.34,8-12.87,15.81-7.85a1.81,1.81,0,0,1,.34.28,10.8,10.8,0,0,1,3.14,7.57v8.5h-28a2.5,2.5,0,0,0-2.5,2.5v30.91a2.5,2.5,0,0,0,2.5,2.49h37.17a2.49,2.49,0,0,0,2.49-2.49V664.2a2.49,2.49,0,0,0-2.49-2.5Zm-2.52,30.89H488.2V666.71h32.14Z" transform="translate(-434.81 -599)"/></svg>